<svg width="40" height="40" viewBox="0 0 40 40" fill="none" xmlns="http://www.w3.org/2000/svg">
<path d="M27.332 26.8086C23.4355 30.7083 17.0911 30.7083 13.1914 26.8086C9.29168 22.9087 9.29168 16.5644 13.1914 12.6663C14.2233 11.6361 15.4814 10.8499 16.9282 10.3373C17.384 10.1777 17.8886 10.2934 18.2271 10.6335C18.5689 10.9753 18.6845 11.4798 18.5234 11.9323C17.5436 14.696 18.2109 17.6875 20.2617 19.7384C22.3093 21.7874 25.3007 22.4532 28.0676 21.4766C28.5201 21.3155 29.0263 21.4312 29.3664 21.773C29.7083 22.1114 29.8222 22.6176 29.6611 23.0718C29.1516 24.5186 28.3639 25.7766 27.332 26.8086ZM14.9589 14.4339C12.0341 17.3587 12.0341 22.1178 14.9589 25.041C18.0839 28.1676 23.4062 27.886 26.1308 24.4029C23.3215 24.5787 20.5546 23.5647 18.4941 21.5057C16.4336 19.4468 15.4212 16.6798 15.5969 13.8706C15.3724 14.0466 15.1591 14.2337 14.9589 14.4339Z" fill="#1D1D1B"/>
</svg>
