<svg width="44" height="35" viewBox="0 0 44 35" fill="none" xmlns="http://www.w3.org/2000/svg">
<path d="M39.4641 0.603394C40.5606 0.603095 41.6168 0.959033 42.4208 1.59985C43.2249 2.24067 43.7174 3.11901 43.7996 4.0588L43.8105 4.33897V30.488C43.8108 31.4305 43.3967 32.3382 42.6511 33.0292C41.9055 33.7203 40.8835 34.1436 39.7901 34.2142L39.4641 34.2236H4.69284C3.59629 34.2239 2.54014 33.868 1.73609 33.2271C0.93205 32.5863 0.439543 31.708 0.357302 30.7682L0.346436 30.488V4.33897C0.346089 3.39653 0.760227 2.4888 1.50583 1.79775C2.25144 1.10671 3.2734 0.683416 4.36686 0.612733L4.69284 0.603394H39.4641ZM17.4691 17.5069L5.17529 28.073C5.03229 28.1964 4.86989 28.302 4.69284 28.3867V30.488H39.4641V28.3867C39.287 28.302 39.1246 28.1964 38.9816 28.073L32.8358 22.7927L31.2994 24.1132L31.7492 24.4999C31.951 24.6734 32.111 24.8794 32.2202 25.1061C32.3293 25.3328 32.3854 25.5757 32.3853 25.8211C32.3852 26.0664 32.3289 26.3093 32.2196 26.5359C32.1102 26.7626 31.95 26.9685 31.7481 27.1419C31.5462 27.3153 31.3065 27.4528 31.0428 27.5466C30.779 27.6404 30.4964 27.6887 30.2109 27.6886C29.9255 27.6885 29.6428 27.6401 29.3791 27.5461C29.1155 27.4522 28.8759 27.3145 28.6741 27.1409L17.4713 17.5069H17.4691ZM39.4641 4.33897H4.69284V23.2036L15.548 13.8759C16.0212 13.4693 16.6523 13.2271 17.3204 13.1958C17.9886 13.1644 18.6466 13.3461 19.1685 13.7059L19.388 13.874L28.2243 21.4703L30.9147 19.158C31.3879 18.7514 32.019 18.5092 32.6872 18.4779C33.3553 18.4465 34.0134 18.6282 34.5353 18.988L34.7569 19.158L39.4641 23.2055V4.33897ZM29.6847 8.07455C30.5492 8.07455 31.3784 8.36972 31.9897 8.89514C32.601 9.42056 32.9445 10.1332 32.9445 10.8762C32.9445 11.6193 32.601 12.3319 31.9897 12.8573C31.3784 13.3827 30.5492 13.6779 29.6847 13.6779C28.8201 13.6779 27.991 13.3827 27.3796 12.8573C26.7683 12.3319 26.4249 11.6193 26.4249 10.8762C26.4249 10.1332 26.7683 9.42056 27.3796 8.89514C27.991 8.36972 28.8201 8.07455 29.6847 8.07455Z" fill="#676767"/>
</svg>
